<svg width="64" height="64" viewBox="0 0 16 16" fill="none" xmlns="http://www.w3.org/2000/svg">
    <g clip-path="url(#clip0_6415_1898)">
        <path
            d="M7.5 1C3.91 1 1 2.04 1 3.33V12.66C1 13.95 3.91 14.99 7.5 14.99C11.09 14.99 14 13.95 14 12.66V3.33C14 2.04 11.09 1 7.5 1ZM7.5 4.94C4.91 4.94 2.61 4.4 1.51 3.53L1.82 3.14C2.82 3.93 5.05 4.45 7.5 4.45C9.95 4.45 12.18 3.94 13.18 3.14L13.49 3.53C12.39 4.4 10.09 4.94 7.5 4.94Z"
            fill="#3387C5"/>
        <path
            d="M13.4898 3.52965L13.1798 3.13965C12.1798 3.92965 9.94977 4.44965 7.49977 4.44965C5.04977 4.44965 2.81977 3.92965 1.81977 3.13965L1.50977 3.52965C2.60977 4.39965 4.90977 4.93965 7.49977 4.93965C10.0898 4.93965 12.3898 4.39965 13.4898 3.52965Z"
            fill="white"/>
        <path
            d="M11.2502 8.25C10.6302 8.25 10.1002 8.62 9.87023 9.16L8.24023 8.34C8.24023 8.34 8.24023 8.28 8.24023 8.25C8.24023 7.42 7.57023 6.75 6.74023 6.75C5.91023 6.75 5.24023 7.42 5.24023 8.25C5.24023 8.57 5.35023 8.87 5.52023 9.12L4.31023 10.33L4.40023 10.42C4.20023 10.32 3.98023 10.26 3.74023 10.26C2.91023 10.26 2.24023 10.93 2.24023 11.76C2.24023 12.59 2.91023 13.26 3.74023 13.26C4.57023 13.26 5.24023 12.59 5.24023 11.76C5.24023 11.31 5.04023 10.91 4.72023 10.63L5.87023 9.48C6.12023 9.65 6.41023 9.76 6.74023 9.76C7.36023 9.76 7.89023 9.39 8.12023 8.85L9.75023 9.67C9.75023 9.67 9.75023 9.73 9.75023 9.76C9.75023 10.59 10.4202 11.26 11.2502 11.26C12.0802 11.26 12.7502 10.59 12.7502 9.76C12.7502 8.93 12.0802 8.26 11.2502 8.26V8.25ZM3.75023 12.75C3.20023 12.75 2.75023 12.3 2.75023 11.75C2.75023 11.2 3.20023 10.75 3.75023 10.75C4.30023 10.75 4.75023 11.2 4.75023 11.75C4.75023 12.3 4.30023 12.75 3.75023 12.75ZM6.75023 9.25C6.20023 9.25 5.75023 8.8 5.75023 8.25C5.75023 7.7 6.20023 7.25 6.75023 7.25C7.30023 7.25 7.75023 7.7 7.75023 8.25C7.75023 8.8 7.30023 9.25 6.75023 9.25ZM11.2502 10.75C10.7002 10.75 10.2502 10.3 10.2502 9.75C10.2502 9.2 10.7002 8.75 11.2502 8.75C11.8002 8.75 12.2502 9.2 12.2502 9.75C12.2502 10.3 11.8002 10.75 11.2502 10.75Z"
            fill="white"/>
    </g>
    <defs>
        <clipPath id="clip0_6415_1898">
            <rect width="64" height="64" fill="white"/>
        </clipPath>
    </defs>
</svg>
