<svg width="64" height="64" viewBox="0 0 16 16" fill="none" xmlns="http://www.w3.org/2000/svg">
    <g clip-path="url(#clip0_6415_2020)">
        <path
            d="M7.5 1C3.91 1 1 2.04 1 3.33V12.66C1 13.95 3.91 14.99 7.5 14.99C9.44 14.99 11.17 14.68 12.36 14.2L10.82 12.66L11.17 12.31L12.84 13.98C13.57 13.6 13.99 13.15 13.99 12.65V3.33C13.99 2.04 11.08 1 7.49 1H7.5ZM7.5 4.94C4.91 4.94 2.61 4.4 1.51 3.53L1.82 3.14C2.82 3.93 5.05 4.45 7.5 4.45C9.95 4.45 12.18 3.94 13.18 3.14L13.49 3.53C12.39 4.4 10.09 4.94 7.5 4.94Z"
            fill="#3387C5"/>
        <path d="M10.8198 12.6801L12.3598 14.2201C12.5298 14.1501 12.6998 14.0801 12.8498 14.0001L11.1798 12.3301L10.8298 12.6801H10.8198Z"
              fill="white"/>
        <path
            d="M7.49977 4.93965C4.90977 4.93965 2.60977 4.39965 1.50977 3.52965L1.81977 3.13965C2.81977 3.92965 5.04977 4.44965 7.49977 4.44965C9.94977 4.44965 12.1798 3.93965 13.1798 3.13965L13.4898 3.52965C12.3898 4.39965 10.0898 4.93965 7.49977 4.93965Z"
            fill="white"/>
        <path
            d="M8.25 13.75C6.04 13.75 4.25 11.96 4.25 9.75C4.25 7.54 6.04 5.75 8.25 5.75C10.46 5.75 12.25 7.54 12.25 9.75C12.25 11.96 10.46 13.75 8.25 13.75ZM8.25 6.25C6.32 6.25 4.75 7.82 4.75 9.75C4.75 11.68 6.32 13.25 8.25 13.25C10.18 13.25 11.75 11.68 11.75 9.75C11.75 7.82 10.18 6.25 8.25 6.25Z"
            fill="white"/>
        <path
            d="M8.27982 8.87C8.94982 8.87 9.56982 8.77 9.98982 8.59C9.94982 8.26 9.19982 8 8.27982 8C7.35982 8 6.59982 8.26 6.56982 8.59C6.98982 8.76 7.60982 8.87 8.27982 8.87Z"
            fill="white"/>
        <path
            d="M8.28006 9.37012C7.62006 9.37012 7.03006 9.28012 6.56006 9.12012V11.0801C6.56006 11.4201 7.33006 11.7001 8.28006 11.7001C9.23006 11.7001 10.0001 11.4201 10.0001 11.0801V9.12012C9.53006 9.28012 8.94006 9.37012 8.28006 9.37012Z"
            fill="white"/>
    </g>
    <defs>
        <clipPath id="clip0_6415_2020">
            <rect width="64" height="64" fill="white"/>
        </clipPath>
    </defs>
</svg>
